<svg width="270" height="179" viewBox="0 0 270 179" fill="none" xmlns="http://www.w3.org/2000/svg">
<path d="M15.4191 72.3949L8.0211 26.4412L23.5484 23.9414C27.1535 23.361 30.2052 23.5373 32.7034 24.4703C35.2142 25.3859 37.2001 26.8541 38.661 28.8748C40.122 30.8956 41.0704 33.2597 41.5063 35.9673C41.9422 38.6749 41.7849 41.2247 41.0343 43.6168C40.2988 46.0066 38.8926 48.0438 36.8158 49.7287C34.7366 51.3986 31.9094 52.5213 28.3342 53.0968L17.2048 54.8886L16.4101 49.9521L27.36 48.1893C29.8282 47.7919 31.7416 47.0465 33.1003 45.9531C34.4589 44.8596 35.358 43.5331 35.7975 41.9738C36.2496 40.397 36.3276 38.6887 36.0314 36.8487C35.7352 35.0088 35.1262 33.4187 34.2045 32.0784C33.2977 30.7358 32.0227 29.7747 30.3794 29.1952C28.7337 28.6007 26.6618 28.5046 24.1636 28.9068L14.3805 30.4817L20.9839 71.4991L15.4191 72.3949Z" fill="#FFF078"/>
<path d="M46.1029 68.8381L62.9456 25.4468L77.6071 31.1378C80.997 32.4536 83.5548 34.1128 85.2805 36.1154C87.0116 38.1038 88.0105 40.3038 88.2772 42.7152C88.5439 45.1266 88.181 47.6106 87.1887 50.1672C86.1963 52.7238 84.7937 54.788 82.9809 56.3597C81.1681 57.9315 78.9619 58.8629 76.3622 59.154C73.768 59.4311 70.79 58.9171 67.4283 57.6123L55.5635 53.0068L57.4057 48.2609L69.101 52.8005C71.4174 53.6997 73.4135 54.0844 75.0891 53.9547C76.7789 53.8304 78.1828 53.2702 79.3009 52.2739C80.4386 51.269 81.3447 49.8979 82.019 48.1606C82.6934 46.4232 82.9579 44.7787 82.8126 43.227C82.6672 41.6753 82.0183 40.2695 80.8659 39.0095C79.7189 37.7354 77.973 36.6433 75.6283 35.7332L66.3907 32.1475L51.3573 70.8776L46.1029 68.8381ZM74.0933 57.2738L77.2056 80.9109L71.1037 78.5424L68.1609 54.9711L74.0933 57.2738Z" fill="#FFF078"/>
<path d="M100.444 68.2025L94.6288 69.2527L103.176 20.4108L108.901 19.3768L133.992 62.144L128.177 63.1941L107.526 27.1079L107.168 27.1725L100.444 68.2025ZM99.3597 49.9224L122.799 45.6895L123.687 50.6099L100.248 54.8428L99.3597 49.9224Z" fill="#FFF078"/>
<path d="M136.457 79.992L142.547 33.8466L148.135 34.5841L145.114 57.4765L145.655 57.5479L169.405 37.3913L176.705 38.3547L154.58 56.6168L170.615 84.5L163.856 83.6079L150.644 60.0403L144.019 65.7683L142.045 80.7294L136.457 79.992Z" fill="#FFF078"/>
<path d="M207.09 33.7289C206.258 31.5642 204.745 30.1042 202.552 29.3489C200.359 28.5936 197.896 28.5634 195.165 29.2582C193.168 29.7662 191.503 30.5338 190.17 31.5609C188.851 32.5843 187.917 33.7678 187.367 35.1114C186.833 36.4512 186.749 37.8406 187.115 39.2796C187.421 40.4837 187.971 41.4461 188.764 42.1667C189.568 42.869 190.498 43.3906 191.554 43.7317C192.606 44.0581 193.678 44.2778 194.77 44.3909C195.858 44.4893 196.849 44.5421 197.742 44.5495L202.637 44.6174C203.89 44.6269 205.305 44.7203 206.883 44.8975C208.475 45.071 210.051 45.4595 211.611 46.0631C213.183 46.6482 214.587 47.5575 215.823 48.7908C217.059 50.0241 217.946 51.6979 218.484 53.8124C219.104 56.2499 219.026 58.615 218.249 60.9076C217.487 63.1965 216.034 65.231 213.892 67.0111C211.764 68.7875 208.968 70.1165 205.502 70.9981C202.272 71.8199 199.342 72.0102 196.713 71.5691C194.098 71.1243 191.878 70.1412 190.053 68.6201C188.242 67.0952 186.935 65.1217 186.131 62.6996L191.77 61.2652C192.35 62.9311 193.281 64.1951 194.564 65.057C195.857 65.9006 197.344 66.3979 199.024 66.549C200.715 66.6816 202.456 66.5201 204.247 66.0643C206.332 65.5339 208.119 64.7199 209.606 63.6223C211.09 62.51 212.161 61.2213 212.82 59.756C213.475 58.276 213.594 56.7137 213.176 55.0691C212.795 53.5713 212.066 52.4591 210.99 51.7322C209.914 51.0054 208.618 50.522 207.103 50.282C205.588 50.0421 203.982 49.9036 202.284 49.8665L196.33 49.6927C192.548 49.576 189.39 48.8394 186.856 47.4829C184.323 46.1263 182.669 43.9283 181.896 40.8887C181.253 38.3631 181.376 35.9869 182.263 33.7599C183.161 31.5146 184.638 29.5755 186.693 27.9427C188.759 26.2916 191.231 25.0999 194.109 24.3677C197.016 23.6281 199.733 23.4919 202.259 23.9592C204.782 24.4118 206.932 25.3657 208.71 26.8209C210.502 28.2724 211.724 30.1268 212.376 32.3841L207.09 33.7289Z" fill="#FFF078"/>
<path d="M228.234 77.4175L222.397 76.4944L246.55 33.1905L252.297 34.0995L261.906 82.7435L256.07 81.8203L248.453 40.9466L248.094 40.8898L228.234 77.4175ZM233.229 59.7998L256.755 63.5209L255.974 68.4595L232.448 64.7384L233.229 59.7998Z" fill="#FFF078"/>
<path d="M64.328 131.247L58.731 131.912C58.2088 130.341 57.4616 128.995 56.4894 127.875C55.5321 126.753 54.4176 125.848 53.1458 125.159C51.8872 124.454 50.5257 123.975 49.0614 123.722C47.5971 123.469 46.0976 123.433 44.5629 123.615C41.7644 123.948 39.3131 124.956 37.2092 126.64C35.1203 128.322 33.5698 130.62 32.5577 133.532C31.5606 136.443 31.2997 139.899 31.775 143.901C32.2503 147.904 33.3134 151.203 34.9645 153.799C36.6305 156.393 38.676 158.264 41.1008 159.41C43.5406 160.554 46.1598 160.96 48.9584 160.628C50.493 160.446 51.9425 160.06 53.3068 159.471C54.6711 158.882 55.8833 158.104 56.9436 157.139C58.0171 156.157 58.8877 155.009 59.5555 153.694C60.2365 152.362 60.6478 150.878 60.7894 149.244L66.3864 148.58C66.2457 150.992 65.7294 153.197 64.8375 155.195C63.9457 157.193 62.75 158.944 61.2504 160.45C59.749 161.94 58.0079 163.147 56.027 164.068C54.0612 164.989 51.9123 165.587 49.5802 165.864C45.6382 166.332 42.0181 165.786 38.7201 164.224C35.422 162.663 32.682 160.211 30.5 156.869C28.3179 153.528 26.9374 149.419 26.3585 144.545C25.7796 139.67 26.1595 135.352 27.4982 131.593C28.8369 127.833 30.9265 124.808 33.7672 122.517C36.6078 120.227 39.9991 118.848 43.9411 118.379C46.2732 118.103 48.5026 118.181 50.6292 118.615C52.7709 119.047 54.747 119.82 56.5574 120.932C58.3661 122.03 59.938 123.445 61.2729 125.178C62.6061 126.897 63.6245 128.92 64.328 131.247Z" fill="#FFF078"/>
<path d="M77.7417 149.255L82.2325 102.926L110.192 105.637L109.71 110.613L87.3602 108.447L85.8428 124.101L106.745 126.127L106.262 131.103L85.3604 129.077L83.8342 144.822L106.546 147.023L106.064 152L77.7417 149.255Z" fill="#FFF078"/>
<path d="M147.64 119.652L152.914 165.898L147.494 166.516L118.153 133.08L117.701 133.132L121.842 169.442L116.242 170.08L110.968 123.835L116.388 123.217L145.829 156.733L146.281 156.681L142.13 120.281L147.64 119.652Z" fill="#FFF078"/>
<path d="M154.243 110.662L155.233 105.761L189.451 112.671L188.462 117.572L174.115 114.675L165.891 155.398L160.366 154.282L168.59 113.559L154.243 110.662Z" fill="#FFF078"/>
<path d="M178.545 167H172.636L189.727 120.455H195.545L212.636 167H206.727L192.818 127.818H192.455L178.545 167ZM180.727 148.818H204.545V153.818H180.727V148.818Z" fill="#FFF078"/>
<path d="M221.623 155.911L204.832 112.5L219.5 106.826C222.892 105.515 225.9 105.017 228.524 105.334C231.143 105.637 233.363 106.59 235.185 108.192C237.007 109.794 238.413 111.874 239.402 114.432C240.391 116.99 240.746 119.46 240.465 121.843C240.185 124.226 239.182 126.4 237.457 128.367C235.727 130.32 233.18 131.947 229.817 133.247L217.947 137.839L216.11 133.091L227.811 128.565C230.128 127.669 231.863 126.608 233.013 125.383C234.178 124.153 234.838 122.793 234.993 121.303C235.157 119.794 234.902 118.17 234.23 116.432C233.558 114.694 232.645 113.301 231.492 112.252C230.339 111.203 228.913 110.602 227.212 110.447C225.506 110.279 223.48 110.648 221.134 111.555L211.892 115.13L226.88 153.878L221.623 155.911ZM234.514 128.507L252.74 143.876L246.635 146.237L228.579 130.802L234.514 128.507Z" fill="#FFF078"/>
</svg>
